<svg width="26" height="27" viewBox="0 0 26 27" fill="none" xmlns="http://www.w3.org/2000/svg">
<path opacity="0.5" d="M19.9067 3.4544L22.668 5.72885C22.8582 5.8855 23.0891 5.96194 23.3188 5.96194C23.6101 5.96194 23.8992 5.83899 24.1004 5.60078C24.4601 5.17474 24.402 4.54133 23.9706 4.18605L21.2093 1.91154C20.778 1.55626 20.1367 1.61356 19.777 2.03966C19.4173 2.4657 19.4753 3.09907 19.9067 3.4544Z" fill="#7A7A7A" stroke="#7A7A7A" stroke-width="0.3"/>
<path opacity="0.5" d="M2.68064 5.96186C2.91027 5.96186 3.14127 5.88542 3.33139 5.72877L6.09266 3.45436C6.524 3.09908 6.58212 2.46567 6.22242 2.03962C5.86278 1.61363 5.22144 1.55623 4.7901 1.91151L2.02878 4.18596C1.59744 4.54124 1.53932 5.17466 1.89902 5.6007C2.10022 5.83891 2.38934 5.96186 2.68064 5.96186Z" fill="#7A7A7A" stroke="#7A7A7A" stroke-width="0.3"/>
<path opacity="0.5" d="M21.4853 6.48051C19.4602 4.48032 16.8387 3.28385 14.0169 3.05147V2.00446C14.0169 1.4497 13.5617 1 13 1C12.4383 1 11.9831 1.4497 11.9831 2.00446V3.05147C9.16132 3.28385 6.53978 4.48027 4.51473 6.48046C2.2482 8.71916 1 11.6956 1 14.8616C1 18.0276 2.2482 21.0041 4.51473 23.2427C6.7812 25.4814 9.79468 26.7143 13 26.7143C15.5807 26.7143 18.0399 25.9173 20.1117 24.4093C20.5639 24.0803 20.6603 23.4515 20.3272 23.0048C19.994 22.5582 19.3573 22.463 18.9052 22.7921C17.1854 24.0438 15.1434 24.7054 13 24.7054C7.50466 24.7054 3.0339 20.2895 3.0339 14.8616C3.0339 9.43373 7.50466 5.01786 13 5.01786C18.4953 5.01786 22.9661 9.43373 22.9661 14.8616C22.9661 16.5195 22.5413 18.1582 21.7376 19.6005C21.4668 20.0865 21.6461 20.6973 22.1382 20.9648C22.6301 21.2322 23.2486 21.0552 23.5194 20.5691C24.488 18.8308 25 16.8572 25 14.8616C25 11.6956 23.7518 8.71916 21.4853 6.48051Z" fill="#7A7A7A" stroke="#7A7A7A" stroke-width="0.3"/>
<path opacity="0.5" d="M17.954 8.81473C17.5175 8.46583 16.8771 8.53238 16.5238 8.96365L13.3173 12.8773C13.2137 12.8612 13.1077 12.8526 12.9997 12.8526C11.8782 12.8526 10.9658 13.7538 10.9658 14.8616C10.9658 15.9693 11.8782 16.8705 12.9997 16.8705C14.1212 16.8705 15.0336 15.9693 15.0336 14.8616C15.0336 14.6078 14.9853 14.3652 14.898 14.1415L18.1048 10.2274C18.4581 9.79615 18.3906 9.16363 17.954 8.81473Z" fill="#7A7A7A" stroke="#7A7A7A" stroke-width="0.3"/>
</svg>
