<svg width="24" height="34" viewBox="0 0 24 34" fill="none" xmlns="http://www.w3.org/2000/svg">
<path d="M24 31.862V2.13797C24.0069 0.966298 23.0812 0.00992397 21.9306 0H8.30747C8.18139 0 8.05957 0.0464633 7.96457 0.130868L1.23748 6.10294L0.180061 7.03608C0.0671671 7.14041 0.00196719 7.28785 3.88523e-05 7.44308V31.862C-0.00690864 33.0337 0.918776 33.9901 2.06944 34H21.9306C23.0812 33.9901 24.0069 33.0337 24 31.862ZM1.92043 6.90625L1.92286 6.90409L7.82611 1.69466V6.04219C7.82611 6.76176 7.53034 6.90625 7.05306 6.90625H1.92043ZM8.86959 29.2188C8.86893 29.8053 8.40213 30.2806 7.82611 30.2812H4.17396C3.59794 30.2806 3.13115 29.8053 3.13049 29.2188V25.5C3.13115 24.9135 3.59794 24.4382 4.17396 24.4375H7.82611C8.40213 24.4382 8.86893 24.9135 8.86959 25.5V29.2188ZM8.86959 22.3125C8.86893 22.899 8.40213 23.3743 7.82611 23.375H4.17396C3.59794 23.3743 3.13115 22.899 3.13049 22.3125V18.5938C3.13115 18.0072 3.59794 17.5319 4.17396 17.5312H7.82611C8.40213 17.5319 8.86893 18.0072 8.86959 18.5938V22.3125ZM8.86959 15.4062C8.86893 15.9928 8.40213 16.4681 7.82611 16.4688H4.17396C3.59794 16.4681 3.13115 15.9928 3.13049 15.4062V11.6875C3.13115 11.101 3.59794 10.6257 4.17396 10.625H7.82611C8.40213 10.6257 8.86893 11.101 8.86959 11.6875V15.4062ZM15.3913 28.9531H11.4783C11.1901 28.9531 10.9565 28.7153 10.9565 28.4219C10.9565 28.1285 11.1901 27.8906 11.4783 27.8906H15.3913C15.6794 27.8906 15.913 28.1285 15.913 28.4219C15.913 28.7153 15.6794 28.9531 15.3913 28.9531ZM20.3478 26.8281H11.4783C11.1901 26.8281 10.9565 26.5903 10.9565 26.2969C10.9565 26.0035 11.1901 25.7656 11.4783 25.7656H20.3478C20.6359 25.7656 20.8695 26.0035 20.8695 26.2969C20.8695 26.5903 20.6359 26.8281 20.3478 26.8281ZM20.3478 22.0469H11.4783C11.1901 22.0469 10.9565 21.809 10.9565 21.5156C10.9565 21.2222 11.1901 20.9844 11.4783 20.9844H20.3478C20.6359 20.9844 20.8695 21.2222 20.8695 21.5156C20.8695 21.809 20.6359 22.0469 20.3478 22.0469ZM20.3478 19.9219H11.4783C11.1901 19.9219 10.9565 19.684 10.9565 19.3906C10.9565 19.0972 11.1901 18.8594 11.4783 18.8594H20.3478C20.6359 18.8594 20.8695 19.0972 20.8695 19.3906C20.8695 19.684 20.6359 19.9219 20.3478 19.9219ZM10.9565 14.6094C10.9565 14.316 11.1901 14.0781 11.4783 14.0781H15.3913C15.6794 14.0781 15.913 14.316 15.913 14.6094C15.913 14.9028 15.6794 15.1406 15.3913 15.1406H11.4783C11.1901 15.1406 10.9565 14.9028 10.9565 14.6094ZM20.3478 13.0156H11.4783C11.1901 13.0156 10.9565 12.7778 10.9565 12.4844C10.9565 12.191 11.1901 11.9531 11.4783 11.9531H20.3478C20.6359 11.9531 20.8695 12.191 20.8695 12.4844C20.8695 12.7778 20.6359 13.0156 20.3478 13.0156Z" fill="#373737"/>
<path d="M6.70374 12.4798L5.50971 13.5238L5.27852 13.3395C5.13181 13.2225 4.93491 13.194 4.762 13.2649C4.58909 13.3357 4.46644 13.4951 4.44025 13.683C4.41405 13.8709 4.4883 14.0588 4.63501 14.1758L5.20311 14.629C5.399 14.7853 5.67606 14.779 5.86484 14.6138L7.38368 13.2857C7.52577 13.1622 7.5922 12.9708 7.55783 12.7839C7.52346 12.5969 7.39355 12.4429 7.21722 12.3801C7.04089 12.3173 6.84504 12.3553 6.70374 12.4798L6.70374 12.4798Z" fill="#373737"/>
<path d="M6.70376 26.2923L5.50972 27.3363L5.27854 27.152C5.05173 26.9711 4.72382 27.0116 4.54612 27.2426C4.36842 27.4735 4.40822 27.8074 4.63503 27.9883L5.20313 28.4415C5.39901 28.5978 5.67607 28.5915 5.86485 28.4263L7.38369 27.0982C7.52579 26.9747 7.59221 26.7833 7.55784 26.5964C7.52348 26.4094 7.39357 26.2554 7.21723 26.1926C7.0409 26.1298 6.84505 26.1678 6.70375 26.2923L6.70376 26.2923Z" fill="#373737"/>
<path d="M7.1517 19.2806C7.05388 19.181 6.92118 19.125 6.78282 19.125C6.64445 19.125 6.51175 19.181 6.41393 19.2806L6.00021 19.7019L5.58649 19.2806C5.38265 19.0739 5.05288 19.0742 4.84943 19.2814C4.64597 19.4885 4.64566 19.8243 4.84873 20.0319L5.26245 20.4531L4.84873 20.8744C4.71687 21.0086 4.66534 21.2042 4.71357 21.3875C4.7618 21.5709 4.90245 21.7141 5.08253 21.7632C5.2626 21.8123 5.45472 21.7599 5.58649 21.6256L6.00021 21.2043L6.41393 21.6256C6.61777 21.8324 6.94754 21.8321 7.151 21.6249C7.35445 21.4177 7.35477 21.082 7.1517 20.8744L6.73798 20.4531L7.1517 20.0319C7.24957 19.9323 7.30455 19.7971 7.30455 19.6562C7.30455 19.5154 7.24957 19.3802 7.1517 19.2806Z" fill="#373737"/>
</svg>
